HIERARCHY
ROOT Root
{
	OFFSET 0.000000 1.235290 9.556880 
	CHANNELS 6 Xposition Yposition Zposition Xrotation Yrotation Zrotation
	JOINT Spine1
	{
		OFFSET 0.000000 -0.335706 0.417760 
		CHANNELS 3 Xrotation Yrotation Zrotation
		JOINT Spine2
		{
			OFFSET 0.000000 0.201896 1.005360 
			CHANNELS 3 Xrotation Yrotation Zrotation
			JOINT Spine3
			{
				OFFSET 0.000000 0.371400 1.223500 
				CHANNELS 3 Xrotation Yrotation Zrotation
				JOINT Neck
				{
					OFFSET 0.000000 -0.271320 1.966900 
					CHANNELS 3 Xrotation Yrotation Zrotation
					JOINT Head
					{
						OFFSET 0.000000 -0.007180 1.071600 
						CHANNELS 3 Xrotation Yrotation Zrotation
						JOINT __Jaw
						{
							OFFSET 0.000000 0.111500 1.311400 
							CHANNELS 3 Xrotation Yrotation Zrotation
							JOINT Jaw
							{
								OFFSET 0.000000 -0.590716 -1.325200 
								CHANNELS 3 Xrotation Yrotation Zrotation
								JOINT __Tongue1
								{
									OFFSET 0.000000 -0.762537 -0.667300 
									CHANNELS 3 Xrotation Yrotation Zrotation
									End Site
									{
										OFFSET 0.000000 0.712770 0.336600 
									}
								}
								JOINT Tongue1
								{
									OFFSET 0.000000 -0.762537 -0.667300 
									CHANNELS 3 Xrotation Yrotation Zrotation
									JOINT Tongue2
									{
										OFFSET 0.000000 0.440548 0.404301 
										CHANNELS 3 Xrotation Yrotation Zrotation
										JOINT Tongue3
										{
											OFFSET 0.000000 -0.222683 -0.007800 
											CHANNELS 3 Xrotation Yrotation Zrotation
											End Site
											{
												OFFSET 0.000000 -0.137613 -0.039500 
											}
										}
									}
								}
							}
						}
						JOINT __Eye_L
						{
							OFFSET 0.000000 0.111500 1.311400 
							CHANNELS 3 Xrotation Yrotation Zrotation
							JOINT Eye_L
							{
								OFFSET 0.286939 -1.150516 -0.965200 
								CHANNELS 3 Xrotation Yrotation Zrotation
								End Site
								{
									OFFSET 0.007035 -0.392999 0.015301 
								}
							}
						}
						JOINT __Eye_R
						{
							OFFSET 0.000000 0.111500 1.311400 
							CHANNELS 3 Xrotation Yrotation Zrotation
							JOINT Eye_R
							{
								OFFSET -0.286939 -1.150516 -0.965200 
								CHANNELS 3 Xrotation Yrotation Zrotation
								End Site
								{
									OFFSET -0.007035 -0.392999 0.015301 
								}
							}
						}
					}
				}
				JOINT __Clavicle_L
				{
					OFFSET 0.000000 -0.271320 1.966900 
					CHANNELS 3 Xrotation Yrotation Zrotation
					JOINT Clavicle_L
					{
						OFFSET 0.252495 -0.592680 -0.680099 
						CHANNELS 3 Xrotation Yrotation Zrotation
						JOINT UpArm_L
						{
							OFFSET 1.471835 0.544940 -0.006500 
							CHANNELS 3 Xrotation Yrotation Zrotation
							JOINT LoArm_L
							{
								OFFSET 1.972350 0.157380 -0.189700 
								CHANNELS 3 Xrotation Yrotation Zrotation
								JOINT Hand_L
								{
									OFFSET 2.379560 -0.226010 -0.082600 
									CHANNELS 3 Xrotation Yrotation Zrotation
									JOINT __Thumb1_L
									{
										OFFSET 1.011520 -0.180094 0.059500 
										CHANNELS 3 Xrotation Yrotation Zrotation
										JOINT Thumb1_L
										{
											OFFSET -0.742610 -0.068096 -0.139400 
											CHANNELS 3 Xrotation Yrotation Zrotation
											JOINT Thumb2_L
											{
												OFFSET 0.294840 -0.171231 -0.196401 
												CHANNELS 3 Xrotation Yrotation Zrotation
												JOINT Thumb3_L
												{
													OFFSET 0.301650 -0.145173 -0.003699 
													CHANNELS 3 Xrotation Yrotation Zrotation
													End Site
													{
														OFFSET 0.352750 -0.040702 -0.031401 
													}
												}
											}
										}
									}
									JOINT __Index1_L
									{
										OFFSET 1.011520 -0.180094 0.059500 
										CHANNELS 3 Xrotation Yrotation Zrotation
										JOINT Index1_L
										{
											OFFSET -0.020550 -0.189660 -0.032800 
											CHANNELS 3 Xrotation Yrotation Zrotation
											JOINT Index2_L
											{
												OFFSET 0.260730 -0.033503 -0.029100 
												CHANNELS 3 Xrotation Yrotation Zrotation
												JOINT Index3_L
												{
													OFFSET 0.208380 -0.017383 -0.010500 
													CHANNELS 3 Xrotation Yrotation Zrotation
													End Site
													{
														OFFSET 0.264640 -0.009090 -0.002500 
													}
												}
											}
										}
									}
									JOINT Middle1_L
									{
										OFFSET 1.011520 -0.180094 0.059500 
										CHANNELS 3 Xrotation Yrotation Zrotation
										JOINT Middle2_L
										{
											OFFSET 0.316330 0.002049 -0.007900 
											CHANNELS 3 Xrotation Yrotation Zrotation
											JOINT Middle3_L
											{
												OFFSET 0.267600 -0.007631 -0.029200 
												CHANNELS 3 Xrotation Yrotation Zrotation
												End Site
												{
													OFFSET 0.242780 0.003143 -0.019500 
												}
											}
										}
									}
									JOINT __Ring1_L
									{
										OFFSET 1.011520 -0.180094 0.059500 
										CHANNELS 3 Xrotation Yrotation Zrotation
										JOINT Ring1_L
										{
											OFFSET -0.013760 0.218464 -0.042000 
											CHANNELS 3 Xrotation Yrotation Zrotation
											JOINT Ring2_L
											{
												OFFSET 0.289610 -0.005100 -0.009501 
												CHANNELS 3 Xrotation Yrotation Zrotation
												JOINT Ring3_L
												{
													OFFSET 0.226630 0.000370 -0.008200 
													CHANNELS 3 Xrotation Yrotation Zrotation
													End Site
													{
														OFFSET 0.238650 -0.005430 -0.004400 
													}
												}
											}
										}
									}
									JOINT __Pinky1_L
									{
										OFFSET 1.011520 -0.180094 0.059500 
										CHANNELS 3 Xrotation Yrotation Zrotation
										JOINT Pinky1_L
										{
											OFFSET -0.011150 0.413174 -0.115499 
											CHANNELS 3 Xrotation Yrotation Zrotation
											JOINT Pinky2_L
											{
												OFFSET 0.234040 0.008980 -0.037001 
												CHANNELS 3 Xrotation Yrotation Zrotation
												JOINT Pinky3_L
												{
													OFFSET 0.128020 -0.000440 -0.009500 
													CHANNELS 3 Xrotation Yrotation Zrotation
													End Site
													{
														OFFSET 0.152970 -0.016250 0.002399 
													}
												}
											}
										}
									}
								}
							}
						}
					}
				}
				JOINT __Clavicle_R
				{
					OFFSET 0.000000 -0.271320 1.966900 
					CHANNELS 3 Xrotation Yrotation Zrotation
					JOINT Clavicle_R
					{
						OFFSET -0.252495 -0.592680 -0.680099 
						CHANNELS 3 Xrotation Yrotation Zrotation
						JOINT UpArm_R
						{
							OFFSET -1.471835 0.544940 -0.006500 
							CHANNELS 3 Xrotation Yrotation Zrotation
							JOINT LoArm_R
							{
								OFFSET -1.972350 0.157380 -0.189700 
								CHANNELS 3 Xrotation Yrotation Zrotation
								JOINT Hand_R
								{
									OFFSET -2.379560 -0.226010 -0.082600 
									CHANNELS 3 Xrotation Yrotation Zrotation
									JOINT __Thumb1_R
									{
										OFFSET -1.011520 -0.180094 0.059500 
										CHANNELS 3 Xrotation Yrotation Zrotation
										JOINT Thumb1_R
										{
											OFFSET 0.742610 -0.068096 -0.139400 
											CHANNELS 3 Xrotation Yrotation Zrotation
											JOINT Thumb2_R
											{
												OFFSET -0.294840 -0.171231 -0.196401 
												CHANNELS 3 Xrotation Yrotation Zrotation
												JOINT Thumb3_R
												{
													OFFSET -0.301650 -0.145173 -0.003699 
													CHANNELS 3 Xrotation Yrotation Zrotation
													End Site
													{
														OFFSET -0.352750 -0.040702 -0.031401 
													}
												}
											}
										}
									}
									JOINT __Index1_R
									{
										OFFSET -1.011520 -0.180094 0.059500 
										CHANNELS 3 Xrotation Yrotation Zrotation
										JOINT Index1_R
										{
											OFFSET 0.020550 -0.189660 -0.032800 
											CHANNELS 3 Xrotation Yrotation Zrotation
											JOINT Index2_R
											{
												OFFSET -0.260730 -0.033503 -0.029100 
												CHANNELS 3 Xrotation Yrotation Zrotation
												JOINT Index3_R
												{
													OFFSET -0.208380 -0.017383 -0.010500 
													CHANNELS 3 Xrotation Yrotation Zrotation
													End Site
													{
														OFFSET -0.264640 -0.009090 -0.002500 
													}
												}
											}
										}
									}
									JOINT Middle1_R
									{
										OFFSET -1.011520 -0.180094 0.059500 
										CHANNELS 3 Xrotation Yrotation Zrotation
										JOINT Middle2_R
										{
											OFFSET -0.316330 0.002049 -0.007900 
											CHANNELS 3 Xrotation Yrotation Zrotation
											JOINT Middle3_R
											{
												OFFSET -0.267600 -0.007631 -0.029200 
												CHANNELS 3 Xrotation Yrotation Zrotation
												End Site
												{
													OFFSET -0.242780 0.003143 -0.019500 
												}
											}
										}
									}
									JOINT __Ring1_R
									{
										OFFSET -1.011520 -0.180094 0.059500 
										CHANNELS 3 Xrotation Yrotation Zrotation
										JOINT Ring1_R
										{
											OFFSET 0.013760 0.218464 -0.042000 
											CHANNELS 3 Xrotation Yrotation Zrotation
											JOINT Ring2_R
											{
												OFFSET -0.289610 -0.005100 -0.009501 
												CHANNELS 3 Xrotation Yrotation Zrotation
												JOINT Ring3_R
												{
													OFFSET -0.226630 0.000370 -0.008200 
													CHANNELS 3 Xrotation Yrotation Zrotation
													End Site
													{
														OFFSET -0.238650 -0.005430 -0.004400 
													}
												}
											}
										}
									}
									JOINT __Pinky1_R
									{
										OFFSET -1.011520 -0.180094 0.059500 
										CHANNELS 3 Xrotation Yrotation Zrotation
										JOINT Pinky1_R
										{
											OFFSET 0.011150 0.413174 -0.115499 
											CHANNELS 3 Xrotation Yrotation Zrotation
											JOINT Pinky2_R
											{
												OFFSET -0.234040 0.008980 -0.037001 
												CHANNELS 3 Xrotation Yrotation Zrotation
												JOINT Pinky3_R
												{
													OFFSET -0.128020 -0.000440 -0.009500 
													CHANNELS 3 Xrotation Yrotation Zrotation
													End Site
													{
														OFFSET -0.152970 -0.016250 0.002399 
													}
												}
											}
										}
									}
								}
							}
						}
					}
				}
			}
		}
	}
	JOINT Hips
	{
		OFFSET 0.000000 -0.335706 0.417760 
		CHANNELS 3 Xrotation Yrotation Zrotation
		JOINT __UpLeg_L
		{
			OFFSET 0.000000 0.022872 -0.785740 
			CHANNELS 3 Xrotation Yrotation Zrotation
			JOINT UpLeg_L
			{
				OFFSET 1.020500 -0.049429 -0.185710 
				CHANNELS 3 Xrotation Yrotation Zrotation
				JOINT LoLeg_L
				{
					OFFSET -0.115340 0.263813 -4.255400 
					CHANNELS 3 Xrotation Yrotation Zrotation
					JOINT Foot_L
					{
						OFFSET -0.219506 0.080640 -3.913219 
						CHANNELS 3 Xrotation Yrotation Zrotation
						JOINT Toe_L
						{
							OFFSET 0.022090 -1.132070 -0.644009 
							CHANNELS 3 Xrotation Yrotation Zrotation
							End Site
							{
								OFFSET 0.031489 -0.669111 0.010260 
							}
						}
					}
				}
			}
		}
		JOINT __UpLeg_R
		{
			OFFSET 0.000000 0.022872 -0.785740 
			CHANNELS 3 Xrotation Yrotation Zrotation
			JOINT UpLeg_R
			{
				OFFSET -1.020500 -0.049429 -0.185710 
				CHANNELS 3 Xrotation Yrotation Zrotation
				JOINT LoLeg_R
				{
					OFFSET 0.115340 0.263813 -4.255400 
					CHANNELS 3 Xrotation Yrotation Zrotation
					JOINT Foot_R
					{
						OFFSET 0.219506 0.080640 -3.913219 
						CHANNELS 3 Xrotation Yrotation Zrotation
						JOINT Toe_R
						{
							OFFSET -0.022090 -1.132070 -0.644009 
							CHANNELS 3 Xrotation Yrotation Zrotation
							End Site
							{
								OFFSET -0.031489 -0.669111 0.010260 
							}
						}
					}
				}
			}
		}
	}
}
MOTION
Frames: 4
Frame Time: 0.041667
0.000000 0.000000 9.154710 -4.462433 -3.790910 -3.461613 5.556149 8.955706 0.829793 7.489253 0.544167 3.923962 15.263499 -3.037007 1.898828 -36.189304 -6.707818 0.945254 37.134899 6.688035 0.621545 -0.000000 -0.000000 -0.000001 -0.000000 -0.000000 -0.000000 0.000003 -0.000000 -0.000000 -0.000002 -0.000000 -0.000001 -0.000003 0.000000 0.000000 -0.000002 -0.000000 -0.000000 -0.000003 0.000001 -0.000001 0.000002 0.000004 -0.000001 -0.000004 0.000000 0.000001 0.000002 -0.000001 -0.000001 -0.000002 -0.000001 0.000000 -3.560237 11.799067 1.101866 9.383945 -4.904918 -61.463936 -10.284046 -18.870588 -28.738398 -9.452992 7.655486 -19.206144 0.000001 0.000000 -0.000000 -0.000000 0.000002 -0.000000 -0.000001 0.000001 -0.000001 -0.000003 0.000002 -0.000003 0.000001 0.000001 -0.000001 -0.000001 -0.000001 0.000002 0.000000 -0.000002 0.000000 0.000001 0.000000 0.000001 -0.000001 0.000001 0.000000 0.000000 0.000002 -0.000000 0.000001 -0.000001 0.000001 0.000000 0.000000 0.000001 0.000001 0.000001 -0.000001 -0.000002 0.000000 0.000000 -0.000001 -0.000001 0.000001 0.000001 -0.000001 0.000000 -0.000003 0.000001 0.000001 -0.000001 0.000001 -0.000000 0.000001 0.000000 -0.000001 -0.000005 0.000001 -0.000000 -5.082275 -11.229728 0.304996 8.904071 0.403566 67.032509 -9.918299 18.459505 27.659094 -9.414939 -7.513392 19.201626 -0.000001 -0.000002 -0.000003 0.000002 -0.000002 -0.000000 0.000002 -0.000004 0.000002 -0.000001 0.000001 -0.000002 -0.000001 -0.000003 -0.000004 0.000002 0.000001 -0.000001 0.000001 0.000001 -0.000001 0.000002 0.000000 0.000001 -0.000000 -0.000002 -0.000003 -0.000002 -0.000000 0.000000 -0.000001 -0.000000 -0.000001 -0.000002 -0.000002 -0.000003 0.000003 0.000002 0.000001 -0.000001 -0.000000 0.000001 -0.000000 -0.000002 0.000002 -0.000001 -0.000002 -0.000004 -0.000003 0.000001 -0.000001 -0.000001 -0.000001 -0.000001 -0.000001 -0.000000 0.000000 0.000006 0.000000 -0.000000 0.000002 0.000000 0.000000 18.026663 -1.576059 -2.602226 8.749831 -1.463100 -1.865348 -22.905396 17.232965 16.419226 0.000003 -0.000000 -0.000000 0.000000 -0.000000 0.000000 -4.909412 16.158497 -1.140098 11.362640 1.364480 2.010515 -10.891037 -21.529123 -10.087511 0.000003 0.000001 0.000001 
0.000000 0.000000 9.228578 -3.618946 -3.771956 -1.770364 4.571309 9.564699 0.385319 7.020097 0.149747 3.290487 15.341448 -3.841218 1.751769 -36.244102 -6.731972 0.712930 36.279884 5.945460 0.526720 0.000000 0.000000 0.000000 -0.000000 0.000000 0.000000 -0.000003 0.000000 -0.000000 -0.000005 -0.000000 0.000000 -0.000001 -0.000000 -0.000000 0.000001 0.000000 -0.000000 -0.000003 0.000001 0.000000 0.000001 -0.000001 -0.000001 -0.000001 0.000000 0.000001 -0.000002 -0.000001 -0.000001 -0.000005 -0.000001 0.000000 -3.560236 11.799070 1.101869 10.161776 -6.294134 -61.729202 -10.273238 -18.867052 -28.724863 -8.597986 7.436003 -19.196398 -0.000000 0.000001 -0.000001 0.000005 0.000002 0.000001 -0.000001 0.000004 -0.000004 -0.000005 0.000001 0.000003 0.000001 0.000002 -0.000001 0.000000 0.000004 0.000001 0.000000 0.000000 0.000001 -0.000000 -0.000000 0.000002 -0.000001 0.000001 -0.000000 -0.000002 0.000000 -0.000000 -0.000001 0.000001 -0.000001 -0.000001 0.000001 0.000000 -0.000001 -0.000000 -0.000001 0.000000 0.000002 0.000001 -0.000001 -0.000000 -0.000001 -0.000000 0.000000 0.000000 -0.000001 0.000000 -0.000000 -0.000001 -0.000001 0.000001 -0.000000 -0.000001 -0.000000 -0.000002 0.000003 0.000002 -5.082278 -11.229727 0.304994 9.598866 1.998925 66.865372 -9.940069 18.466774 27.767298 -9.187793 -7.540471 19.216314 0.000000 0.000002 -0.000002 0.000002 -0.000002 -0.000001 0.000002 -0.000003 -0.000001 -0.000004 -0.000000 -0.000003 0.000001 -0.000000 -0.000002 0.000003 -0.000000 -0.000000 -0.000001 0.000000 0.000002 -0.000000 0.000001 0.000000 0.000002 0.000001 -0.000004 -0.000001 -0.000001 0.000001 -0.000001 0.000001 -0.000003 0.000001 0.000000 -0.000003 -0.000002 0.000001 0.000000 0.000001 0.000001 -0.000001 0.000000 -0.000002 0.000002 0.000004 0.000001 -0.000003 0.000001 -0.000001 -0.000003 0.000000 -0.000001 0.000002 0.000001 0.000000 -0.000001 0.000002 0.000000 -0.000000 0.000001 -0.000000 0.000000 17.341661 -2.739271 -3.865696 11.430281 -1.436378 -1.970259 -20.601856 18.072866 15.938740 0.000005 -0.000000 -0.000002 0.000001 0.000000 0.000000 -2.629742 15.227287 -1.498772 10.972456 1.374253 1.997835 -13.475638 -20.628357 -12.642714 0.000002 0.000001 0.000001 
0.000000 0.000000 9.226751 -4.256016 -3.033852 -1.036623 4.264741 7.783032 0.407595 6.910192 -0.203871 3.184370 15.395637 -3.246417 1.530800 -36.784081 -6.338308 0.518696 35.353577 5.183800 0.295429 0.000001 -0.000000 -0.000000 -0.000003 0.000000 0.000000 -0.000002 -0.000000 0.000000 -0.000003 0.000000 0.000000 -0.000003 -0.000000 0.000000 -0.000000 -0.000000 -0.000000 -0.000001 -0.000000 -0.000001 -0.000000 0.000004 -0.000003 -0.000000 0.000001 0.000000 -0.000003 -0.000003 -0.000003 -0.000002 -0.000001 0.000001 -3.560237 11.799071 1.101868 9.430931 -6.722831 -62.032829 -10.262431 -18.863516 -28.711334 -8.929079 7.467483 -19.190695 -0.000001 0.000001 0.000002 0.000001 0.000000 0.000003 0.000005 0.000001 -0.000002 -0.000001 -0.000001 0.000002 0.000002 0.000002 0.000001 -0.000000 -0.000001 0.000002 0.000000 -0.000002 -0.000002 -0.000002 -0.000001 0.000000 0.000001 0.000002 0.000001 -0.000002 0.000001 -0.000001 0.000000 -0.000000 -0.000001 -0.000000 0.000001 0.000002 0.000001 0.000001 0.000000 -0.000001 0.000001 0.000001 0.000001 -0.000001 0.000002 0.000003 0.000000 0.000002 0.000001 -0.000001 -0.000000 -0.000001 0.000000 0.000000 -0.000000 0.000002 -0.000000 0.000000 0.000002 0.000002 -5.082273 -11.229727 0.304996 8.823635 1.805955 66.936539 -9.956497 18.476784 27.846825 -8.611957 -7.443599 19.242447 -0.000002 -0.000000 -0.000001 0.000005 -0.000004 -0.000002 0.000001 -0.000002 0.000001 -0.000000 -0.000001 0.000001 -0.000000 -0.000002 -0.000000 0.000000 -0.000001 -0.000001 -0.000000 -0.000001 0.000001 -0.000000 0.000000 -0.000001 -0.000001 -0.000002 -0.000001 -0.000001 -0.000000 -0.000002 0.000002 -0.000001 0.000000 -0.000000 -0.000000 -0.000000 0.000002 0.000001 -0.000001 0.000001 -0.000001 -0.000001 -0.000001 -0.000001 0.000000 0.000002 -0.000000 0.000000 -0.000002 -0.000000 0.000001 0.000003 0.000000 -0.000000 -0.000003 -0.000000 0.000000 0.000004 -0.000000 -0.000000 0.000001 -0.000000 0.000000 18.264303 -5.334123 -3.952676 13.010508 -1.449857 -2.023905 -17.552603 19.255013 14.646285 0.000007 -0.000001 -0.000001 0.000000 -0.000001 0.000000 0.505768 13.208268 -3.817763 9.827833 1.410648 1.950361 -13.517147 -20.838692 -11.528943 0.000003 0.000001 0.000000 
0.000000 0.000000 9.224929 -4.651676 -2.211707 -0.956629 3.918191 6.686621 0.470407 6.917259 -0.944131 3.237048 15.575843 -3.405242 1.500152 -37.494797 -6.012039 0.681000 35.259708 4.662628 0.453307 -0.000001 -0.000000 -0.000000 0.000003 0.000000 -0.000000 -0.000000 -0.000000 -0.000000 -0.000000 -0.000000 -0.000000 -0.000003 0.000000 0.000000 0.000000 -0.000000 0.000001 0.000001 -0.000000 -0.000001 0.000005 0.000003 -0.000001 -0.000003 -0.000000 -0.000001 0.000001 -0.000003 -0.000000 -0.000001 -0.000002 -0.000000 -3.560239 11.799068 1.101870 8.208579 -5.672930 -62.242386 -10.183535 -18.758368 -28.478662 -9.798230 7.546872 -19.184580 -0.000001 0.000001 -0.000002 0.000000 0.000003 -0.000002 -0.000001 0.000000 -0.000004 -0.000000 -0.000002 0.000000 0.000000 0.000001 -0.000002 0.000000 -0.000002 0.000000 -0.000001 -0.000002 -0.000000 0.000002 -0.000002 0.000001 -0.000000 0.000001 -0.000001 0.000001 -0.000001 0.000001 -0.000000 0.000001 -0.000001 0.000001 0.000000 -0.000001 -0.000000 0.000001 0.000000 0.000000 -0.000001 0.000002 -0.000001 -0.000000 0.000001 0.000002 0.000000 -0.000001 -0.000003 -0.000001 -0.000001 -0.000000 -0.000001 0.000003 -0.000001 0.000001 -0.000000 -0.000001 0.000002 0.000000 -5.082273 -11.229730 0.304993 7.140855 0.888875 68.023407 -9.786637 18.253817 27.356043 -8.429812 -7.479508 19.256618 -0.000004 -0.000000 -0.000001 0.000001 -0.000004 0.000001 0.000002 -0.000002 0.000001 -0.000002 -0.000001 -0.000001 -0.000002 -0.000000 -0.000000 0.000000 -0.000001 0.000001 0.000001 -0.000000 0.000001 0.000001 0.000000 -0.000001 -0.000003 -0.000000 -0.000001 0.000001 0.000000 -0.000000 -0.000000 -0.000001 0.000001 -0.000003 -0.000001 -0.000002 -0.000000 -0.000000 0.000001 -0.000001 0.000000 -0.000001 -0.000002 0.000000 0.000001 -0.000003 -0.000001 -0.000001 0.000001 0.000000 -0.000001 -0.000003 -0.000001 -0.000001 -0.000000 -0.000001 0.000003 0.000001 0.000000 -0.000000 0.000001 -0.000001 0.000000 18.211374 -7.622643 -2.887967 16.062805 -1.405032 -2.004649 -17.079651 19.690031 13.354228 0.000003 -0.000002 -0.000002 0.000002 -0.000000 0.000000 2.674293 11.000664 -4.173899 9.103792 1.432956 1.922863 -14.704214 -20.775606 -10.708287 0.000005 0.000001 0.000001 
